<svg width="487" height="353" viewBox="0 0 487 353" fill="none" xmlns="http://www.w3.org/2000/svg">
<path d="M62.743 68.5772L62.5104 68.7191L62.5036 68.9914C62.4526 71.0141 62.9543 72.9116 63.517 74.7339C63.621 75.0707 63.7268 75.4043 63.8319 75.7355C64.3021 77.218 64.758 78.6555 64.9767 80.1445C65.3871 82.9398 66.3442 84.8365 67.9998 86.0084C69.6333 87.1646 71.8553 87.5469 74.6352 87.5415C149.39 87.3976 224.144 87.4078 299.172 87.4181C315.965 87.4203 332.771 87.4226 349.594 87.4232C357.095 87.4226 364.571 87.4211 372.028 87.4197C398.202 87.4146 424.14 87.4095 450.079 87.44C453.518 87.444 456.751 86.8835 459.998 85.6884C472.96 80.9174 480.75 71.1131 484.154 59.9589C487.553 48.8174 486.58 36.3209 482.027 26.1038C472.787 5.37249 450.055 -4.04215 427.761 3.02966C406.848 9.66354 394.576 30.7724 398.42 52.8438C398.862 55.384 399.674 57.8096 400.502 60.2848L400.526 60.355C401.307 62.6894 402.103 65.0775 402.651 67.7041C399.791 67.7027 396.978 67.6914 394.197 67.6803C386.893 67.651 379.817 67.6227 372.748 67.7757C370.811 67.8176 369.639 67.49 368.956 66.8172C368.279 66.1506 367.956 65.0181 368.055 63.1097C368.428 55.9265 368.32 48.6232 366.938 41.5802C360.552 9.0548 324.136 -7.3695 295.325 9.02293L295.294 9.04068C293.334 10.1555 291.827 11.013 290.781 11.7668C289.746 12.5133 289.036 13.243 288.872 14.1447C288.706 15.0532 289.124 15.9616 289.843 16.9749C290.566 17.9949 291.688 19.2465 293.143 20.8694L293.172 20.9023C293.486 21.252 293.8 21.5912 294.112 21.9266C294.935 22.8125 295.733 23.672 296.414 24.6295C297.599 26.2937 298.825 27.3487 300.323 27.6326C301.812 27.9149 303.437 27.4086 305.357 26.2882C324.103 15.3493 347.262 28.4123 347.857 50.073C347.903 51.7494 347.883 53.428 347.863 55.1175C347.858 55.5135 347.853 55.9102 347.849 56.3076C347.828 58.3942 347.831 60.4941 347.985 62.5886C348.142 64.7189 347.834 65.9674 347.104 66.7048C346.367 67.4505 345.064 67.8123 342.853 67.7987C323.484 67.6796 304.113 67.6816 284.744 67.6837C274.95 67.6847 265.157 67.6858 255.364 67.6711C254.991 67.6706 254.608 67.7028 254.246 67.7331C254.205 67.7366 254.164 67.74 254.123 67.7434C253.717 67.7771 253.335 67.8041 252.968 67.7894C252.338 67.7641 251.779 67.6181 251.289 67.1725C255.618 53.7235 256.914 42.8166 254.903 33.5009C252.874 24.1017 247.493 16.3877 238.613 9.34829C225.036 -1.41518 204.181 -2.73748 188.798 7.47403C177.403 15.038 171.093 24.1403 168.877 34.4421C166.706 44.5347 168.48 55.7145 173.139 67.6346C171.07 67.6353 169.035 67.6385 167.024 67.6417C161.395 67.6507 155.958 67.6593 150.521 67.6101C149.932 67.6047 149.536 67.4874 149.263 67.3233C148.995 67.1622 148.81 66.9344 148.678 66.6395C148.397 66.0107 148.381 65.147 148.38 64.1629C148.38 62.8363 148.392 61.5046 148.404 60.1701C148.431 57.1672 148.459 54.1503 148.342 51.1467C147.881 39.2409 144.441 28.4195 136.365 19.2596C119.907 0.591001 91.1931 -2.9129 71.8807 11.3966C70.4566 12.4517 69.46 13.4964 69.2705 14.7026C69.0747 15.9482 69.7627 17.1473 71.1036 18.4303C73.0282 20.2717 74.9311 22.1392 76.4571 24.2403C77.7906 26.0764 79.1225 27.1999 80.7368 27.4807C82.3381 27.7593 84.0811 27.1831 86.1748 25.9739C101.754 16.9763 122.527 25.6473 127.266 42.9416C129.012 49.3136 128.866 55.9594 128.632 62.6503C128.56 64.6967 128.113 65.9457 127.284 66.6982C126.447 67.4568 125.106 67.8163 122.982 67.7908C108.406 67.6165 93.8278 67.6594 79.2539 67.7023C75.8302 67.7124 72.4067 67.7225 68.9836 67.7297C68.5855 67.7306 68.1842 67.7128 67.767 67.6944C67.686 67.6908 67.6044 67.6872 67.522 67.6837C67.022 67.6625 66.5022 67.6454 65.9774 67.6677C64.9212 67.7126 63.8244 67.9173 62.743 68.5772ZM205.098 66.357C204.25 66.1382 203.444 65.8304 202.609 65.5114C202.221 65.363 201.826 65.2122 201.418 65.0667C194.871 61.4611 190.575 56.3291 188.757 50.7883C186.937 45.2428 187.588 39.2555 190.994 33.9041C199.342 20.7885 214.308 17.4935 225.931 26.0917C230.974 29.822 234.261 34.2839 235.702 39.0311C237.141 43.7734 236.751 48.837 234.378 53.8052C229.27 64.5 217.556 69.5716 205.098 66.357ZM465.885 46.9977C465.328 52.1347 463.529 56.2064 460.696 59.3762C457.864 62.5446 453.971 64.8412 449.178 66.3835C440.132 68.2849 432.451 67.1458 425.886 61.7252C416.652 54.1013 414.973 42.578 421.4 32.9994C428.803 21.9664 441.947 18.0395 452.451 24.0568C456.85 26.5771 460.5 29.6079 462.904 33.3507C465.301 37.0837 466.476 41.5534 465.885 46.9977Z" fill="#290808" stroke="black"/>
<path d="M9.31054 265.992L9.31008 265.989C7.52413 250.998 8.32463 236.793 14.4768 223.296C19.1702 213 26.772 206.45 38.2028 204.902C44.3333 204.073 50.2556 205.502 56.2492 206.971C57.5356 207.286 58.7767 207.352 59.8205 206.956C60.8959 206.549 61.6832 205.682 62.0939 204.311C62.5085 202.926 62.1906 201.819 61.4439 200.992C60.7273 200.198 59.6526 199.7 58.602 199.389C48.7905 196.488 38.8361 195.794 29.9804 198.584C21.1083 201.379 13.3899 207.655 8.04807 218.591C0.243391 234.569 -0.636879 251.428 1.50922 268.582C2.72108 278.268 5.19958 287.701 10.8913 295.937C14.6344 301.354 19.1016 304.334 23.8487 304.709C28.595 305.084 33.4834 302.843 38.0464 298.116C41.2622 294.785 43.7903 290.928 46.2814 287.128C46.525 286.756 46.7682 286.385 47.0116 286.015C57.4334 270.178 66.3051 253.456 75.1632 236.76L75.2812 236.537C75.4102 236.294 75.5332 236.046 75.653 235.804L75.6802 235.749C75.7913 235.525 75.8998 235.305 76.0117 235.09C76.2544 234.624 76.5018 234.202 76.7914 233.845C77.348 233.16 78.0699 232.698 79.2848 232.734C87.6486 232.977 96.0122 233.228 104.306 233.477C107.234 233.564 110.154 233.652 113.062 233.739C113.512 235.363 113.207 236.593 112.892 237.861C112.83 238.111 112.768 238.362 112.711 238.617C111.324 244.839 109.898 251.055 108.472 257.274C105.7 269.36 102.926 281.453 100.435 293.598C99.8581 296.41 99.2527 299.222 98.6465 302.037C95.7578 315.455 92.8515 328.954 92.9467 342.885C92.9485 343.146 92.9473 343.414 92.946 343.687C92.9399 345.013 92.9332 346.456 93.2679 347.728C93.4739 348.511 93.8134 349.256 94.375 349.895C94.9383 350.537 95.7039 351.048 96.7253 351.394C98.7811 352.091 100.401 351.603 101.734 350.616C102.875 349.771 103.822 348.546 104.676 347.441C104.788 347.296 104.899 347.152 105.009 347.012C105.11 346.882 105.216 346.749 105.324 346.613C105.923 345.861 106.595 345.017 107.001 344.091C107.5 342.95 107.614 341.662 106.847 340.193C106.447 339.428 105.954 338.913 105.37 338.608C104.79 338.305 104.169 338.234 103.56 338.268C102.956 338.302 102.332 338.441 101.736 338.584C101.653 338.604 101.571 338.624 101.489 338.643C101.192 338.715 100.901 338.786 100.612 338.846C100.749 337.741 100.875 336.674 100.997 335.633C101.299 333.052 101.583 330.637 101.975 328.232C105.852 304.455 111.163 280.981 116.477 257.489C117.836 251.481 119.196 245.471 120.532 239.455C121.064 237.056 121.796 235.471 122.907 234.573C123.994 233.694 125.555 233.391 127.97 233.833C131.906 234.555 135.886 234.579 139.816 234.603L140 234.604C144.005 234.628 147.96 234.664 151.862 235.416C152.926 235.621 153.982 235.555 154.85 235.073C155.734 234.582 156.346 233.701 156.582 232.441C156.807 231.244 156.617 230.25 156.038 229.454C155.472 228.675 154.58 228.151 153.528 227.781C151.846 227.19 150.124 227.121 148.478 227.055C148.14 227.042 147.804 227.029 147.473 227.011C141.804 226.707 136.137 226.38 130.48 226.054C128.5 225.94 126.52 225.826 124.542 225.713C124.2 224.299 124.52 223.095 124.869 221.784C124.959 221.445 125.051 221.099 125.135 220.74C127.482 210.603 129.952 200.487 132.423 190.368C136.894 172.06 141.368 153.741 145.123 135.266C146.678 127.615 148.161 119.864 147.67 111.885C147.583 110.481 147.434 109.061 146.899 107.835C146.353 106.58 145.413 105.546 143.807 104.902C142.27 104.286 140.922 104.435 139.72 104.962C138.546 105.477 137.511 106.353 136.574 107.168L136.903 107.545L136.574 107.168C135.288 108.287 134.21 109.661 133.222 110.997C129.237 116.386 125.765 122.092 122.529 127.941C112.108 146.773 102.405 165.991 92.7068 185.199C86.9376 196.626 81.1702 208.048 75.2545 219.384C74.2963 221.221 73.3012 222.477 72.0653 223.259C70.8365 224.037 69.3111 224.382 67.2197 224.283C57.5608 223.823 47.8901 223.571 38.2257 223.319C34.9058 223.232 31.5866 223.146 28.269 223.051C27.2493 223.021 26.072 223.015 25.109 223.403C24.6134 223.603 24.1622 223.911 23.8158 224.378C23.4703 224.844 23.2518 225.438 23.1712 226.173C23.0037 227.702 23.4561 228.783 24.3548 229.512C25.2093 230.205 26.4083 230.527 27.6292 230.723C32.7066 231.54 37.8331 231.582 42.9158 231.624C44.9986 231.641 47.0741 231.658 49.1358 231.728C53.5265 231.878 57.9096 232.137 62.5307 232.411C64.3943 232.521 66.2966 232.634 68.2536 232.743C59.3898 249.798 50.5875 265.892 40.4899 281.242C40.3556 281.446 40.2214 281.65 40.0872 281.854C37.6583 285.551 35.2261 289.252 32.281 292.435C29.2917 295.667 26.7325 297.019 24.4208 296.806C22.1057 296.592 19.8166 294.788 17.4208 291.123C12.547 283.668 10.342 275.262 9.31054 265.992ZM139.861 116.017C139.864 116.026 139.867 116.035 139.87 116.044C138.133 132.424 134.401 148.018 130.678 163.571C129.687 167.711 128.697 171.848 127.746 175.996C126.166 182.88 124.464 189.737 122.76 196.599C122.642 197.077 122.523 197.554 122.405 198.031C120.584 205.37 118.771 212.716 117.118 220.099C116.622 222.316 115.905 223.646 114.863 224.419C113.818 225.193 112.347 225.481 110.16 225.369C104.934 225.102 99.6856 225.082 94.4499 225.063C91.6829 225.052 88.9196 225.042 86.1655 224.995C85.8076 224.989 85.4438 225.013 85.1022 225.035L85.0305 225.04C84.6598 225.064 84.3134 225.084 83.9777 225.071C83.3538 225.048 82.8064 224.913 82.3199 224.496C82.1464 224.025 82.1946 223.618 82.3478 223.204C82.433 222.974 82.5503 222.744 82.6861 222.498C82.7259 222.426 82.7686 222.351 82.8124 222.273C82.9108 222.098 83.0152 221.913 83.1065 221.734C86.943 214.202 90.7446 206.654 94.5456 199.107C106.621 175.132 118.69 151.17 131.851 127.772C132.196 127.158 132.535 126.543 132.874 125.929C134.864 122.315 136.825 118.755 139.836 115.94C139.841 115.954 139.846 115.969 139.851 115.986L139.861 116.017Z" fill="#290808" stroke="black"/>
<path d="M218.698 102.122L219.104 102.415L218.698 102.122C216.612 105.011 215.031 108.166 213.65 111.415C205.638 130.271 200.714 150.054 195.8 169.802L195.605 170.585C195.21 172.172 194.901 173.81 194.594 175.44C194.402 176.458 194.211 177.473 194 178.471C193.492 180.868 192.857 183.228 191.801 185.5C188.808 182.414 185.872 180.676 182.772 180.411C179.496 180.131 176.163 181.507 172.534 184.401C163.886 191.299 159.125 200.652 156.608 211.205C155.344 216.505 154.864 221.904 156.789 227.221C157.961 230.457 159.979 232.602 162.486 233.406C164.994 234.21 167.876 233.634 170.697 231.672C172.636 230.324 174.326 228.588 175.916 226.901C178.267 224.406 180.241 221.637 182.183 218.758C182.643 218.075 183.101 217.388 183.562 216.695C184.68 215.018 185.814 213.315 187.035 211.606C186.859 212.624 186.683 213.641 186.507 214.656C182.953 235.176 179.502 255.099 176.974 275.163C176.87 275.985 176.762 276.81 176.654 277.637C175.856 283.723 175.044 289.921 175.88 296.16C176.028 297.258 176.304 298.426 176.916 299.392C177.541 300.378 178.502 301.131 179.95 301.392C181.174 301.614 182.251 301.42 183.187 300.915C184.114 300.414 184.876 299.624 185.511 298.69C186.173 297.715 187.009 296.452 187.417 295.232C187.622 294.618 187.733 293.974 187.632 293.36C187.527 292.727 187.204 292.16 186.607 291.718C185.597 290.971 184.984 290.194 184.612 289.4C184.239 288.602 184.097 287.758 184.072 286.854C184.05 286.029 184.125 285.179 184.205 284.276C184.214 284.18 184.222 284.084 184.231 283.987C184.317 283.004 184.395 281.968 184.327 280.912C187.155 259.259 190.338 238.104 194.318 217.086C194.79 214.59 195.16 212.058 195.519 209.529C195.559 209.244 195.6 208.958 195.64 208.672C195.958 206.428 196.274 204.191 196.654 201.974C197.511 196.978 198.687 192.126 200.899 187.652C211.592 166.025 219.324 143.375 226.374 120.455C227.841 115.686 229.123 110.785 229.229 105.68C229.257 104.291 229.19 102.827 228.669 101.575C228.134 100.289 227.133 99.26 225.391 98.7375C223.757 98.2474 222.442 98.5574 221.348 99.2866C220.286 99.9939 219.445 101.087 218.698 102.122ZM163.538 217.633C164.59 209.645 167.443 202.383 172.294 195.932C174.888 192.589 177.235 190.158 180.488 188.955C181.788 188.474 182.625 188.474 183.219 188.813C183.83 189.163 184.347 189.96 184.769 191.492C186.179 196.602 184.768 200.626 181.756 204.738C179.981 207.161 178.318 209.663 176.67 212.162C176.54 212.359 176.41 212.556 176.28 212.753C174.762 215.056 173.248 217.351 171.655 219.588C169.907 222.044 168.121 224.4 165.152 225.459C163.018 223.16 163.16 220.507 163.538 217.633Z" fill="#290808" stroke="black"/>
<path d="M300.634 143.977L300.669 143.883L300.665 143.783C300.604 142.446 300.273 141.346 299.601 140.576C298.917 139.79 297.942 139.417 296.756 139.415C294.509 139.41 293.487 141.229 292.719 142.739L293.165 142.965L292.719 142.739C291.712 144.721 290.972 146.828 290.245 148.897C290.089 149.343 289.932 149.787 289.774 150.228C288.877 152.731 287.913 155.145 286.411 157.298C279.642 166.999 272.26 176.175 263.496 184.136L263.442 184.186C260.244 187.09 257.099 189.948 253.089 191.458C251.335 192.119 249.716 192.358 248.288 192.036C246.877 191.717 245.587 190.836 244.503 189.122L244.081 189.39L244.503 189.122C243.529 187.581 242.92 185.36 242.662 182.773C242.405 180.195 242.501 177.297 242.903 174.435C243.305 171.574 244.01 168.764 244.964 166.361C245.921 163.95 247.111 161.99 248.46 160.787C253.322 156.448 258.005 151.875 261.82 146.503C264.122 143.26 266.538 139.813 266.77 135.461C266.912 132.781 266.012 130.664 264.355 129.488C262.699 128.313 260.405 128.162 257.94 129.166C254.467 130.579 251.86 133.115 249.776 136.001C240.298 149.123 235.38 163.99 234.547 179.984C234.166 187.304 235.993 194.948 243.637 198.785C250.991 202.477 257.353 198.986 263.045 194.75C268.298 190.84 273.119 186.452 277.401 181.473C278.178 180.57 279.003 179.719 280.042 178.647C280.259 178.423 280.486 178.189 280.723 177.943C280.488 179.125 280.25 180.259 280.019 181.356C279.274 184.907 278.608 188.08 278.358 191.267C278.316 191.797 278.23 192.363 278.137 192.967C278.102 193.198 278.066 193.434 278.031 193.676C277.908 194.532 277.805 195.441 277.853 196.311C277.901 197.183 278.103 198.048 278.617 198.797C279.135 199.552 279.938 200.141 281.1 200.514C282.342 200.914 283.381 200.916 284.267 200.597C285.148 200.281 285.815 199.67 286.355 198.958C286.891 198.25 287.325 197.411 287.727 196.607C287.777 196.506 287.827 196.405 287.877 196.305C288.229 195.596 288.562 194.926 288.939 194.345C289.362 193.693 289.716 193.006 290.051 192.33C290.122 192.187 290.192 192.044 290.262 191.902C290.523 191.37 290.779 190.85 291.06 190.344C291.488 189.574 291.915 188.804 292.342 188.034C296.499 180.531 300.667 173.01 306.125 165.586C306.125 165.621 306.125 165.657 306.125 165.692C306.122 171.443 306.119 176.695 307.943 181.706C308.941 184.448 310.377 187.269 314.02 187.685C315.766 187.884 317.232 187.485 318.456 186.68C319.67 185.883 320.623 184.704 321.389 183.376C322.547 181.37 323.614 179.295 324.674 177.232C325.291 176.032 325.906 174.836 326.535 173.66C326.961 172.863 327.331 172.035 327.686 171.216C327.751 171.065 327.816 170.915 327.88 170.766C328.169 170.096 328.453 169.437 328.763 168.792C329.46 167.34 330.263 166.006 331.446 164.926C331.964 165.403 332.032 165.905 332.117 166.535C332.148 166.767 332.182 167.016 332.241 167.288L332.73 167.181L332.241 167.288C333.663 173.791 336.549 178.103 340.636 179.865C344.723 181.626 349.833 180.76 355.523 177.32C361.022 173.997 365.412 169.417 369.745 164.897C370.133 164.493 370.519 164.09 370.906 163.688C371.011 163.579 371.12 163.467 371.231 163.353C372.065 162.497 373.046 161.491 373.563 160.41C373.864 159.78 374.028 159.088 373.904 158.358C373.779 157.626 373.376 156.916 372.657 156.232C371.881 155.492 371.107 155.092 370.331 154.99C369.554 154.888 368.839 155.093 368.196 155.446C367.559 155.796 366.973 156.3 366.438 156.83C366.054 157.21 365.678 157.621 365.324 158.009C365.188 158.158 365.055 158.303 364.926 158.442C360.952 162.722 356.934 166.84 352.007 169.955C350.001 171.223 348.274 172.026 346.81 172.384C345.35 172.74 344.186 172.648 343.259 172.173C342.332 171.698 341.566 170.801 340.983 169.394C340.398 167.983 340.012 166.092 339.832 163.693C339.752 162.634 339.69 161.564 339.627 160.489C339.505 158.404 339.381 156.3 339.132 154.226C338.999 153.124 338.771 151.952 338.186 150.991C337.584 150.001 336.623 149.268 335.122 149.022C333.77 148.801 332.622 149.04 331.631 149.596C330.652 150.146 329.852 150.989 329.153 151.937L329.556 152.234L329.153 151.937C326.8 155.132 324.995 158.647 323.21 162.123C322.713 163.091 322.218 164.056 321.713 165.01C321.009 166.338 320.38 167.732 319.752 169.123C319.386 169.935 319.019 170.747 318.639 171.545C317.712 173.487 316.677 175.4 315.287 177.21C313.539 172.251 313.599 167.519 314.141 162.721C314.464 159.871 314.64 157.02 313.957 154.118C313.754 153.258 313.507 152.37 313.022 151.648C312.52 150.899 311.779 150.35 310.657 150.137C308.628 149.751 306.964 150.503 305.784 152.095L306.186 152.392L305.784 152.095C305.408 152.603 305.03 153.111 304.652 153.62C302.745 156.184 300.828 158.762 299.046 161.427C296.795 164.795 294.616 168.216 292.441 171.631C291.978 172.359 291.514 173.087 291.051 173.813C292.827 165.019 295.9 156.745 299.059 148.239C299.583 146.826 300.111 145.407 300.634 143.977Z" fill="#290808" stroke="black"/>
</svg>
